<?xml version="1.0" encoding="utf-8"?>
<!-- Generator: Adobe Illustrator 21.0.2, SVG Export Plug-In . SVG Version: 6.00 Build 0)  -->
<svg version="1.1" id="Layer_1" xmlns="http://www.w3.org/2000/svg" xmlns:xlink="http://www.w3.org/1999/xlink" x="0px" y="0px"
	 viewBox="0 0 360 360" style="enable-background:new 0 0 360 360;" xml:space="preserve">
<style type="text/css">
	.st0{fill:#FFFFFF;}
	.st1{fill:#DADADA;}
	.st2{fill:#E91E63;}
	.st3{fill:#2C96FF;}
</style>
<g>
	<path class="st0" d="M350.5,119c0-14.1-0.5-28.2-2-42.2c-1.2-11-4.1-21.5-9.9-30.9c-12.6-20.5-31.3-31.4-55-34.2
		c-13.1-1.6-26.3-2-39.5-2c-24.6,0-49.3-0.1-73.9,0c-27.2,0.1-54.5-0.8-81.7,1c-7.7,0.5-15.5,1.2-23.1,3
		c-29.2,7-49.5,30.8-53.5,60.2c-1.8,13.2-2.3,26.4-2.3,39.7c-0.1,44.3-0.1,88.6,0,132.9c0,14,0.5,28,2.6,41.8
		c2.9,18.8,11.7,34.2,26.7,45.8c11.9,9.2,25.5,13.6,40.3,15c13.1,1.2,26.2,1.7,39.4,1.7c35.7,0,71.4,0,107,0c19,0,38.1,0.1,57-2
		c10.4-1.1,20.3-3.6,29.4-8.8c21.8-12.4,33.4-31.6,36.4-56.2c1.7-14,2-28.1,2-42.2c0-20.4,0-40.7,0-61.1
		C350.5,159.8,350.5,139.4,350.5,119z M128.4,258.2c-1.7,0.2-3.4,0.4-5.1,0c-0.9-0.2-1.7,0.1-2.6,0c-3.8-0.9-7.6-2-11-4.2
		c-7.2-4.8-11.8-11.4-13.1-20.1c-0.6-3.6-0.3-7.1,0.4-10.6c0.4-1.9,1.1-3.6,2.4-5c3.3-6.6,8.1-11.6,15.1-14.3
		c8.9-3.5,17.4-2.5,25.5,2.4c7.5,3.5,11.1,10,12.8,17.7C156.3,240.3,144.6,256.4,128.4,258.2z M146.4,137.7
		c-4.8,5.5-10.7,8.6-17.8,9.7c-0.2,0-0.4,0.1-0.7,0.1c-2.5,0.2-5.1-0.3-7.6-0.1c-3.3-0.9-6.6-1.8-9.6-3.6
		c-8-4.7-12.6-11.7-14.1-20.9c-0.6-3.5-0.2-6.9,0.4-10.4c0.4-1.8,1.1-3.4,2.4-4.8c2-4,4.6-7.6,8.1-10.4c9.3-7.6,22.9-8.2,32.4-1.6
		c0.1,0.1,0.3,0.1,0.5,0.1c4.2,1.6,6.8,5,9.1,8.6c2.6,4.3,4,9.1,4,14.1C153.5,125.7,151.2,132.2,146.4,137.7z M208.6,110.9
		c0.4-1.4,1.4-2.3,2.1-3.5c3.3-6.5,8.1-11.5,14.9-14.2c8.8-3.5,17.2-2.6,25.3,2.2c9.2,4.4,12.7,12.4,13.5,22
		c0.6,7.2-1.5,13.6-6,19.2c-5.6,6.9-12.7,10.8-21.7,10.8c-1.7,0-3.4-0.1-5.2-0.1c-4.3-1-8.4-2.4-12-5
		C209.6,135.2,205.1,122.6,208.6,110.9z M253.2,252.6c-4.4,3.3-9.4,5.1-14.9,5.7c-1.7,0.2-3.2-0.3-4.9-0.4c-0.5,0-0.9,0.3-1.4,0.3
		c-5.6-1.1-10.7-3.2-15-7c-5-4.5-8.1-10-9.2-16.6c-0.7-4-0.5-8,0.5-12c0.4-1.6,1.3-2.9,2.3-4.2c2.7-5.5,6.5-10,12-12.9
		c9.6-5,19-4.7,28.3,0.9c5.8,2.2,9,6.9,11.2,12.2C267.3,230.3,264.1,244.4,253.2,252.6z"/>
	<path class="st1" d="M238.6,257.3c-1.8,0.4-3.6,0.5-5.3,0C235.1,257.3,236.8,257.3,238.6,257.3z"/>
	<path class="st2" d="M210.7,107.4c-1.4,3.7-2.4,7.5-2.4,11.5c0,13.2,9,24.3,21.9,27.2c0.5,0.1,1,0.2,1.5,0.3
		c4.8,1.3,9.5,3.1,14.6,2.8c0.7,0,1.5-0.1,1.8,0.8c-2.2,0-3.7,1.4-5.4,2.6c-17,11.9-40.7,1.4-43.3-19.2
		C198,122.7,202,114,210.7,107.4z"/>
	<path class="st2" d="M99.4,107.7c-0.8,2.5-1.7,5-2,7.7c-1.6,14.9,7.4,27.5,21.9,30.8c0.4,0.1,0.8,0.2,1.1,0.3
		c4.8,1.4,9.6,3.1,14.7,2.8c0.7,0,1.6-0.1,2,0.8c-2.4,0-4,1.5-5.9,2.7c-16.7,11.3-39.4,1.8-42.9-18c-1.9-10.7,1.7-19.7,10.2-26.6
		C98.8,108,99.1,107.9,99.4,107.7z"/>
	<path class="st2" d="M210.6,218.3c-2.4,6-3.2,12.1-1.5,18.4c3.1,10.9,10.2,17.6,21.1,20.3c0.5,0.1,1.1,0.2,1.6,0.4
		c3.5,0.9,6.9,2.2,10.6,2.6c0.9,0.1,1.9,0.1,2.8,0.2c0.6,0.1,1.4,0,1.7,0.8c-1.4,0.3-2.5,1.1-3.6,2c-8.4,6-17.6,7.2-27.1,3.4
		c-9.7-3.9-15.5-11.4-16.9-21.8C197.9,233.7,201.9,224.9,210.6,218.3z"/>
	<path class="st2" d="M99.5,218.3c-0.9,2.7-1.8,5.4-2.2,8.3c-1.6,14,7.8,27.2,21.6,30.2c0.6,0.1,1.2,0.3,1.8,0.4
		c3.5,0.9,6.9,2.2,10.4,2.6c1,0.1,2,0.1,3,0.2c0.6,0.1,1.4,0,1.6,0.8c-1.2,0.2-2.2,0.9-3.2,1.6c-16.2,12.4-40.8,3.9-44.3-17.6
		C86.5,234,90.5,225.1,99.5,218.3z"/>
	<path class="st3" d="M248,150.1c-3.6-0.1-7.2,0.1-10.7-1.1c-2-0.7-4-1.4-5.7-2.6c9.5,1.2,17.7-1.4,24.5-8.3
		c9.5-9.7,10.2-26,1.5-36.5c-2-2.4-4.3-4.3-6.7-6.1c12.1,2.3,23.2,13.8,22,29.7C272,137.9,261.1,149,248,150.1z"/>
	<path class="st3" d="M135.8,261c-4.7,0.1-9.3-0.6-13.6-2.8c-0.5-0.3-0.9-0.6-1.4-0.8c5.3,0.6,10.4,0.1,15.3-2.1
		c9.6-4.5,15.3-12,16.4-22.7c1.1-10.7-3.1-19.2-11.7-25.6c-0.2-0.2-0.4-0.4-0.6-0.6c10,1.6,19.1,10.6,21.3,21.2
		C164.8,244.2,152.7,260.1,135.8,261z"/>
	<path class="st3" d="M137.1,150.1c-4.7,0.1-9.3-0.1-13.6-2.1c-1-0.5-2.1-1-3.1-1.6c9.9,1.3,18.4-1.6,25.2-9
		c8.8-9.6,9.3-25.2,1.2-35.4c-1.9-2.4-4.2-4.2-6.4-6.2c1.3-0.1,2.5,0.5,3.7,0.9c12.1,4.5,19.3,16.7,17.6,29.7
		C160.1,138.8,149.6,148.9,137.1,150.1z"/>
	<path class="st3" d="M247,261c-4.7,0-9.3-0.6-13.6-2.8c-0.5-0.2-1-0.5-1.4-0.8c0.5,0,0.9,0,1.4,0c1.8,0.2,3.6,0.2,5.3,0
		c11.7-0.7,22.8-10.6,24.6-22.4c1.8-11.6-2-20.9-11.5-27.9c-0.3-0.2-0.5-0.4-0.8-0.6c13,2.5,22.3,14.2,22,27.8
		c-0.2,13.1-10.2,24.5-23,26.5C248.9,260.8,247.9,260.9,247,261z"/>
</g>
</svg>
